# 3ds Max Wavefront OBJ Exporter v0.97b - (c)2007 guruware
# File Created: 30.04.2013 09:48:07

mtllib grave03.mtl

#
# object grave_d
#

v  8.7232 286.9699 -24.1222
v  -8.7232 286.9699 -24.1222
v  -8.7232 286.9699 -15.3398
v  8.7232 286.9699 -15.3398
v  39.5275 56.5216 19.6877
v  -39.5275 56.5216 19.6877
v  -42.9694 -0.7162 23.1200
v  42.9694 -0.7162 23.1200
v  39.5275 56.5216 -59.1497
v  42.9694 -0.7162 -62.5821
v  -39.5275 56.5216 -59.1497
v  -42.9694 -0.7162 -62.5821
v  21.9376 84.1252 2.2502
v  -21.9376 84.1252 2.2502
v  21.9376 84.1252 -41.7123
v  -21.9376 84.1252 -41.7123
v  13.7675 84.1252 -5.6944
v  -13.7675 84.1252 -5.6944
v  13.7675 84.1252 -33.7677
v  -13.7675 84.1252 -33.7677
v  9.1193 213.8375 -15.3398
v  -9.1193 213.8375 -15.3398
v  9.1193 213.8375 -24.1222
v  -9.1193 213.8375 -24.1222
v  18.8671 222.9504 -15.3398
v  -18.8671 222.9504 -15.3398
v  18.8671 222.9504 -24.1222
v  -18.8671 222.9504 -24.1222
v  18.8671 241.6971 -15.3398
v  -18.8671 241.6971 -15.3398
v  51.7997 243.8517 -24.1222
v  51.7997 243.8517 -15.3398
v  51.7997 220.7957 -15.3398
v  51.7997 220.7957 -24.1222
v  -18.8671 241.6971 -24.1222
v  18.8671 241.6971 -24.1222
v  -51.7997 243.8517 -15.3398
v  -51.7997 243.8517 -24.1222
v  -51.7997 220.7957 -24.1222
v  -51.7997 220.7957 -15.3398
v  8.7232 250.8023 -15.3398
v  -8.7232 250.8023 -15.3398
v  8.7232 250.8023 -24.1222
v  -8.7232 250.8023 -24.1222
v  8.7232 274.8194 -15.3398
v  -8.7232 274.8194 -15.3398
v  8.7232 274.8194 -24.1222
v  -8.7232 274.8194 -24.1222
v  -13.3055 274.8194 -10.8944
v  13.3055 274.8194 -10.8944
v  13.3055 274.8194 -28.5677
v  -13.3055 274.8194 -28.5677
v  29.3544 222.9504 -24.1222
v  29.3544 222.9504 -15.3398
v  29.3544 241.6971 -24.1222
v  29.3544 241.6971 -15.3398
v  -29.3544 222.9504 -15.3398
v  -29.3544 222.9504 -24.1222
v  -29.3544 241.6971 -15.3398
v  -29.3544 241.6971 -24.1222
v  39.8418 220.7957 -24.1222
v  39.8418 220.7957 -15.3398
v  39.8418 243.8517 -24.1222
v  39.8418 243.8517 -15.3398
v  -39.8417 220.7957 -15.3398
v  -39.8417 220.7957 -24.1222
v  -39.8417 243.8517 -15.3398
v  -39.8417 243.8517 -24.1222
# 68 vertices

vn 0.0000 1.0000 -0.0000
vn 0.0000 0.0599 0.9982
vn 0.9661 0.2583 -0.0000
vn 0.9982 0.0600 -0.0000
vn 0.0000 0.0599 -0.9982
vn -0.9661 0.2583 -0.0000
vn -0.9982 0.0600 -0.0000
vn 0.0000 0.8373 0.5467
vn 0.0000 0.5341 0.8454
vn 0.8433 0.5374 -0.0000
vn 0.0000 0.8373 -0.5467
vn 0.0000 0.5341 -0.8454
vn -0.8433 0.5374 -0.0000
vn 0.0000 0.0298 0.9996
vn 0.0000 0.0742 0.9972
vn 0.9994 0.0358 -0.0000
vn 0.0000 0.0298 -0.9996
vn 0.0000 0.0742 -0.9972
vn -0.9994 0.0358 -0.0000
vn 0.0000 0.0000 1.0000
vn 0.3671 -0.9302 -0.0000
vn 0.6829 -0.7305 -0.0000
vn 0.0000 0.0000 -1.0000
vn -0.3671 -0.9302 -0.0000
vn -0.6829 -0.7305 -0.0000
vn 1.0000 0.0000 -0.0000
vn -1.0000 0.0000 -0.0000
vn 0.6680 0.7442 -0.0000
vn 0.3576 0.9339 -0.0000
vn -0.6680 0.7442 -0.0000
vn -0.3576 0.9339 -0.0000
vn 0.0000 0.3436 0.9391
vn 0.9357 0.3529 -0.0000
vn 0.0000 0.3436 -0.9391
vn -0.9357 0.3529 -0.0000
vn 0.0000 -1.0000 -0.0000
vn -0.1011 -0.9949 -0.0000
vn -0.1011 0.9949 -0.0000
vn 0.1011 -0.9949 -0.0000
vn 0.1011 0.9949 -0.0000
# 40 vertex normals

vt 0.9761 0.5743 0.0000
vt 0.9767 0.6361 0.0000
vt 0.9412 0.6364 0.0000
vt 0.9407 0.5746 0.0000
vt 0.6710 0.5344 0.0000
vt 0.5046 0.5344 0.0000
vt 0.4973 0.4387 0.0000
vt 0.6782 0.4387 0.0000
vt 0.6956 0.5378 0.0000
vt 0.8242 0.5378 0.0000
vt 0.8298 0.4270 0.0000
vt 0.6900 0.4270 0.0000
vt 0.6340 0.6071 0.0000
vt 0.5416 0.6071 0.0000
vt 0.7241 0.5913 0.0000
vt 0.7958 0.5913 0.0000
vt 0.9492 0.8287 0.0000
vt 0.8542 0.8287 0.0000
vt 0.8260 0.7974 0.0000
vt 0.9774 0.7974 0.0000
vt 0.9492 0.9391 0.0000
vt 0.9774 0.9703 0.0000
vt 0.8542 0.9391 0.0000
vt 0.8260 0.9703 0.0000
vt 0.6070 0.8594 0.0000
vt 0.5686 0.8594 0.0000
vt 0.5588 0.6071 0.0000
vt 0.6168 0.6071 0.0000
vt 0.7527 0.8424 0.0000
vt 0.7671 0.8424 0.0000
vt 0.7828 0.5913 0.0000
vt 0.7370 0.5913 0.0000
vt 0.6275 0.8746 0.0000
vt 0.5481 0.8746 0.0000
vt 0.7527 0.8601 0.0000
vt 0.7671 0.8601 0.0000
vt 0.6275 0.9060 0.0000
vt 0.5481 0.9060 0.0000
vt 0.7527 0.9005 0.0000
vt 0.7671 0.9005 0.0000
vt 0.7671 0.8559 0.0000
vt 0.7527 0.8559 0.0000
vt 0.6061 0.9212 0.0000
vt 0.5694 0.9212 0.0000
vt 0.7527 0.9140 0.0000
vt 0.7671 0.9140 0.0000
vt 0.7671 0.8963 0.0000
vt 0.7527 0.8963 0.0000
vt 0.9770 0.6721 0.0000
vt 0.9415 0.6724 0.0000
vt 0.6061 0.9614 0.0000
vt 0.5694 0.9614 0.0000
vt 0.7527 0.9605 0.0000
vt 0.7671 0.9605 0.0000
vt 0.6061 0.9818 0.0000
vt 0.5694 0.9818 0.0000
vt 0.5598 0.9614 0.0000
vt 0.6158 0.9614 0.0000
vt 0.7527 0.9840 0.0000
vt 0.7671 0.9840 0.0000
vt 0.7743 0.9605 0.0000
vt 0.7455 0.9605 0.0000
vt 0.9226 0.5585 0.0000
vt 0.9234 0.6528 0.0000
vt 0.9939 0.5579 0.0000
vt 0.9948 0.6522 0.0000
vt 0.9932 0.5089 0.0000
vt 0.9577 0.5092 0.0000
vt 0.9581 0.5464 0.0000
vt 0.9935 0.5461 0.0000
vt 0.6496 0.9060 0.0000
vt 0.6496 0.8746 0.0000
vt 0.9418 0.7096 0.0000
vt 0.9773 0.7093 0.0000
vt 0.5260 0.9060 0.0000
vt 0.5260 0.8746 0.0000
vt 0.9929 0.4718 0.0000
vt 0.9574 0.4721 0.0000
vt 0.6717 0.9096 0.0000
vt 0.6717 0.8710 0.0000
vt 0.9422 0.7467 0.0000
vt 0.9776 0.7464 0.0000
vt 0.5039 0.9096 0.0000
vt 0.5039 0.8710 0.0000
vt 0.9925 0.4294 0.0000
vt 0.9570 0.4297 0.0000
vt 0.6968 0.9096 0.0000
vt 0.6968 0.8710 0.0000
vt 0.9425 0.7891 0.0000
vt 0.9780 0.7888 0.0000
vt 0.4787 0.9096 0.0000
vt 0.4787 0.8710 0.0000
# 92 texture coords

g grave_d
usemtl 15___Default
f 1/1/1 2/2/1 3/3/1 
f 3/3/1 4/4/1 1/1/1 
f 5/5/2 6/6/2 7/7/2 
f 7/7/2 8/8/2 5/5/2 
f 9/9/3 5/10/3 8/11/4 
f 8/11/4 10/12/4 9/9/3 
f 11/6/5 9/5/5 10/8/5 
f 10/8/5 12/7/5 11/6/5 
f 6/10/6 11/9/6 12/12/7 
f 12/12/7 7/11/7 6/10/6 
f 13/13/8 14/14/8 6/6/9 
f 6/6/9 5/5/9 13/13/8 
f 15/15/10 13/16/10 5/10/3 
f 5/10/3 9/9/3 15/15/10 
f 16/14/11 15/13/11 9/5/12 
f 9/5/12 11/6/12 16/14/11 
f 14/16/13 16/15/13 11/9/6 
f 11/9/6 6/10/6 14/16/13 
f 17/17/1 18/18/1 14/19/8 
f 14/19/8 13/20/8 17/17/1 
f 19/21/1 17/17/1 13/20/8 
f 13/20/8 15/22/11 19/21/1 
f 20/23/1 19/21/1 15/22/11 
f 15/22/11 16/24/11 20/23/1 
f 18/18/1 20/23/1 16/24/11 
f 16/24/11 14/19/8 18/18/1 
f 21/25/14 22/26/14 18/27/15 
f 18/27/15 17/28/15 21/25/14 
f 23/29/16 21/30/16 17/31/16 
f 17/31/16 19/32/16 23/29/16 
f 24/26/17 23/25/17 19/28/18 
f 19/28/18 20/27/18 24/26/17 
f 22/30/19 24/29/19 20/32/19 
f 20/32/19 18/31/19 22/30/19 
f 25/33/20 26/34/20 22/26/14 
f 22/26/14 21/25/14 25/33/20 
f 27/35/21 25/36/21 21/30/22 
f 21/30/22 23/29/22 27/35/21 
f 28/34/23 27/33/23 23/25/17 
f 23/25/17 24/26/17 28/34/23 
f 26/36/24 28/35/24 24/29/25 
f 24/29/25 22/30/25 26/36/24 
f 29/37/20 30/38/20 26/34/20 
f 26/34/20 25/33/20 29/37/20 
f 31/39/26 32/40/26 33/41/26 
f 33/41/26 34/42/26 31/39/26 
f 35/38/23 36/37/23 27/33/23 
f 27/33/23 28/34/23 35/38/23 
f 37/40/27 38/39/27 39/42/27 
f 39/42/27 40/41/27 37/40/27 
f 41/43/20 42/44/20 30/38/20 
f 30/38/20 29/37/20 41/43/20 
f 43/45/28 41/46/28 29/47/29 
f 29/47/29 36/48/29 43/45/28 
f 44/44/23 43/43/23 36/37/23 
f 36/37/23 35/38/23 44/44/23 
f 42/3/30 44/2/30 35/49/31 
f 35/49/31 30/50/31 42/3/30 
f 45/51/20 46/52/20 42/44/20 
f 42/44/20 41/43/20 45/51/20 
f 47/53/26 45/54/26 41/46/26 
f 41/46/26 43/45/26 47/53/26 
f 48/52/23 47/51/23 43/43/23 
f 43/43/23 44/44/23 48/52/23 
f 46/54/27 48/53/27 44/45/27 
f 44/45/27 42/46/27 46/54/27 
f 4/55/32 3/56/32 49/57/32 
f 49/57/32 50/58/32 4/55/32 
f 1/59/33 4/60/33 50/61/33 
f 50/61/33 51/62/33 1/59/33 
f 2/56/34 1/55/34 51/58/34 
f 51/58/34 52/57/34 2/56/34 
f 3/60/35 2/59/35 52/62/35 
f 52/62/35 49/61/35 3/60/35 
f 50/63/36 49/64/36 46/3/36 
f 46/3/36 45/4/36 50/63/36 
f 51/65/36 50/63/36 45/4/36 
f 45/4/36 47/1/36 51/65/36 
f 52/66/36 51/65/36 47/1/36 
f 47/1/36 48/2/36 52/66/36 
f 49/64/36 52/66/36 48/2/36 
f 48/2/36 46/3/36 49/64/36 
f 53/67/37 54/68/37 25/69/21 
f 25/69/21 27/70/21 53/67/37 
f 55/71/23 53/72/23 27/33/23 
f 27/33/23 36/37/23 55/71/23 
f 56/68/38 55/67/38 36/70/29 
f 36/70/29 29/69/29 56/68/38 
f 54/72/20 56/71/20 29/37/20 
f 29/37/20 25/33/20 54/72/20 
f 57/73/39 58/74/39 28/49/24 
f 28/49/24 26/50/24 57/73/39 
f 59/75/20 57/76/20 26/34/20 
f 26/34/20 30/38/20 59/75/20 
f 60/74/40 59/73/40 30/50/31 
f 30/50/31 35/49/31 60/74/40 
f 58/76/23 60/75/23 35/38/23 
f 35/38/23 28/34/23 58/76/23 
f 61/77/37 62/78/37 54/68/37 
f 54/68/37 53/67/37 61/77/37 
f 63/79/23 61/80/23 53/72/23 
f 53/72/23 55/71/23 63/79/23 
f 64/78/38 63/77/38 55/67/38 
f 55/67/38 56/68/38 64/78/38 
f 62/80/20 64/79/20 56/71/20 
f 56/71/20 54/72/20 62/80/20 
f 65/81/39 66/82/39 58/74/39 
f 58/74/39 57/73/39 65/81/39 
f 67/83/20 65/84/20 57/76/20 
f 57/76/20 59/75/20 67/83/20 
f 68/82/40 67/81/40 59/73/40 
f 59/73/40 60/74/40 68/82/40 
f 66/84/23 68/83/23 60/75/23 
f 60/75/23 58/76/23 66/84/23 
f 34/85/36 33/86/36 62/78/37 
f 62/78/37 61/77/37 34/85/36 
f 31/87/23 34/88/23 61/80/23 
f 61/80/23 63/79/23 31/87/23 
f 32/86/1 31/85/1 63/77/38 
f 63/77/38 64/78/38 32/86/1 
f 33/88/20 32/87/20 64/79/20 
f 64/79/20 62/80/20 33/88/20 
f 40/89/36 39/90/36 66/82/39 
f 66/82/39 65/81/39 40/89/36 
f 37/91/20 40/92/20 65/84/20 
f 65/84/20 67/83/20 37/91/20 
f 38/90/1 37/89/1 67/81/40 
f 67/81/40 68/82/40 38/90/1 
f 39/92/23 38/91/23 68/83/23 
f 68/83/23 66/84/23 39/92/23 
# 130 faces

