# 3ds Max Wavefront OBJ Exporter v0.97b - (c)2007 guruware
# File Created: 30.04.2013 09:48:27

mtllib grave04.mtl

#
# object grave_c
#

v  11.7462 330.6226 -4.0233
v  -11.7462 330.6226 -4.0233
v  -11.7462 330.6226 4.0233
v  11.7462 330.6226 4.0233
v  50.0666 12.9078 36.1162
v  -50.0666 12.9078 36.1162
v  -54.4261 0.0133 39.2610
v  54.4262 0.0133 39.2610
v  50.0666 12.9078 -36.1161
v  54.4262 0.0133 -39.2610
v  -50.0666 12.9078 -36.1161
v  -54.4261 0.0133 -39.2610
v  50.0666 20.9986 36.1162
v  -50.0666 20.9986 36.1162
v  50.0666 20.9986 -36.1161
v  -50.0666 20.9986 -36.1161
v  50.0666 40.8228 36.1162
v  -50.0666 40.8228 36.1162
v  50.0666 40.8228 -36.1161
v  -50.0666 40.8228 -36.1161
v  50.0666 48.5223 36.1162
v  -50.0666 48.5223 36.1162
v  50.0666 48.5223 -36.1161
v  -50.0666 48.5223 -36.1161
v  42.0350 48.5223 30.4668
v  -42.0350 48.5223 30.4668
v  42.0350 48.5223 -30.4668
v  -42.0350 48.5223 -30.4668
v  27.7867 103.6289 20.1397
v  -27.7867 103.6289 20.1397
v  27.7867 103.6289 -20.1397
v  -27.7867 103.6289 -20.1397
v  17.4384 103.6289 12.8607
v  -17.4383 103.6289 12.8607
v  17.4384 103.6289 -12.8607
v  -17.4383 103.6289 -12.8607
v  12.2796 234.3186 4.0233
v  -12.2796 234.3186 4.0233
v  12.2796 234.3186 -4.0233
v  -12.2796 234.3186 -4.0233
v  25.4055 246.3188 4.0233
v  -25.4055 246.3188 4.0233
v  25.4055 246.3188 -4.0233
v  -25.4055 246.3188 -4.0233
v  25.4055 271.0054 4.0233
v  -25.4055 271.0054 4.0233
v  69.7510 273.8427 -4.0233
v  69.7510 273.8427 4.0233
v  69.7510 243.4815 4.0233
v  69.7510 243.4815 -4.0233
v  -25.4055 271.0054 -4.0233
v  25.4055 271.0054 -4.0233
v  -69.7510 273.8427 4.0233
v  -69.7510 273.8427 -4.0233
v  -69.7510 243.4815 -4.0233
v  -69.7510 243.4815 4.0233
v  11.7462 282.9955 4.0233
v  -11.7462 282.9955 4.0233
v  11.7462 282.9955 -4.0233
v  -11.7462 282.9955 -4.0233
v  11.7462 314.6223 4.0233
v  -11.7462 314.6223 4.0233
v  11.7462 314.6223 -4.0233
v  -11.7462 314.6223 -4.0233
v  -17.9166 314.6223 8.0963
v  17.9166 314.6223 8.0963
v  17.9166 314.6223 -8.0963
v  -17.9166 314.6223 -8.0963
v  39.5273 246.3188 -4.0233
v  39.5273 246.3188 4.0233
v  39.5273 271.0054 -4.0233
v  39.5273 271.0054 4.0233
v  -39.5272 246.3188 4.0233
v  -39.5272 246.3188 -4.0233
v  -39.5272 271.0054 4.0233
v  -39.5272 271.0054 -4.0233
v  53.6490 243.4815 -4.0233
v  53.6490 243.4815 4.0233
v  53.6490 273.8427 -4.0233
v  53.6490 273.8427 4.0233
v  -53.6490 243.4815 4.0233
v  -53.6490 243.4815 -4.0233
v  -53.6490 273.8427 4.0233
v  -53.6490 273.8427 -4.0233
v  19.0565 303.7646 3.0452
v  19.0565 303.7646 -3.4359
v  -0.8128 307.9880 -3.4359
v  -0.8128 307.9880 3.0452
v  15.4790 295.7295 3.0452
v  -0.8128 299.1924 3.0452
v  15.4790 295.7295 -3.4359
v  -0.8128 299.1924 -3.4359
v  35.4902 291.8249 3.0452
v  35.4902 291.8249 -3.4359
v  28.9538 285.9395 3.0452
v  28.9538 285.9395 -3.4359
v  45.6468 274.2331 3.0452
v  45.6468 274.2331 -3.4359
v  37.2817 271.5151 3.0452
v  37.2817 271.5151 -3.4359
v  47.7701 254.0312 3.0452
v  47.7701 254.0312 -3.4359
v  39.0227 254.9506 3.0452
v  39.0227 254.9506 -3.4359
v  41.4930 234.7122 3.0452
v  41.4930 234.7122 -3.4359
v  33.8758 239.1100 3.0452
v  33.8758 239.1100 -3.4359
v  27.9008 219.6166 3.0452
v  27.9008 219.6166 -3.4359
v  22.7309 226.7323 3.0452
v  22.7309 226.7323 -3.4359
v  9.3438 211.3544 3.0452
v  9.3438 211.3544 -3.4359
v  7.5150 219.9578 3.0452
v  7.5150 219.9578 -3.4359
v  -10.9694 211.3544 3.0452
v  -10.9694 211.3544 -3.4359
v  -9.1407 219.9578 3.0452
v  -9.1407 219.9578 -3.4359
v  -29.5265 219.6166 3.0452
v  -29.5265 219.6166 -3.4359
v  -24.3565 226.7323 3.0452
v  -24.3565 226.7323 -3.4359
v  -43.1186 234.7122 3.0452
v  -43.1186 234.7122 -3.4359
v  -35.5014 239.1100 3.0452
v  -35.5014 239.1100 -3.4359
v  -49.3958 254.0312 3.0452
v  -49.3958 254.0312 -3.4359
v  -40.6484 254.9506 3.0452
v  -40.6484 254.9506 -3.4359
v  -47.2724 274.2331 3.0452
v  -47.2724 274.2331 -3.4359
v  -38.9073 271.5151 3.0452
v  -38.9073 271.5151 -3.4359
v  -37.1159 291.8249 3.0452
v  -37.1159 291.8249 -3.4359
v  -30.5795 285.9395 3.0452
v  -30.5795 285.9395 -3.4359
v  -20.6821 303.7646 3.0452
v  -20.6821 303.7646 -3.4359
v  -17.1047 295.7295 3.0452
v  -17.1047 295.7295 -3.4359
# 144 vertices

vn 0.0000 1.0000 -0.0000
vn 0.0000 0.1303 0.9915
vn 0.0000 0.2369 0.9715
vn 0.9849 0.1732 -0.0000
vn 0.9473 0.3203 -0.0000
vn 0.0000 0.1303 -0.9915
vn 0.0000 0.2369 -0.9715
vn -0.9849 0.1732 -0.0000
vn -0.9473 0.3203 -0.0000
vn 0.0000 0.0000 1.0000
vn 1.0000 0.0000 -0.0000
vn 0.0000 0.0000 -1.0000
vn -1.0000 0.0000 -0.0000
vn 0.0000 0.1842 0.9829
vn 0.9682 0.2503 -0.0000
vn 0.0000 0.1842 -0.9829
vn -0.9682 0.2503 -0.0000
vn 0.0000 0.0271 0.9996
vn 0.0000 0.0675 0.9977
vn 0.9992 0.0394 -0.0000
vn 0.0000 0.0271 -0.9996
vn 0.0000 0.0675 -0.9977
vn -0.9992 0.0394 -0.0000
vn 0.3619 -0.9322 -0.0000
vn 0.6748 -0.7380 -0.0000
vn -0.3619 -0.9322 -0.0000
vn -0.6747 -0.7380 -0.0000
vn 0.6597 0.7515 -0.0000
vn 0.3525 0.9358 -0.0000
vn 0.0000 -0.0000 -1.0000
vn -0.6597 0.7515 -0.0000
vn -0.3525 0.9358 -0.0000
vn 0.0000 0.2467 0.9691
vn 0.9330 0.3598 -0.0000
vn 0.0000 0.2467 -0.9691
vn -0.9330 0.3598 -0.0000
vn 0.0000 -1.0000 -0.0000
vn -0.0990 -0.9951 -0.0000
vn -0.0990 0.9951 -0.0000
vn 0.0990 -0.9951 -0.0000
vn 0.0990 0.9951 -0.0000
vn 0.4067 0.9135 -0.0000
vn -0.0000 1.0000 -0.0000
vn -0.4067 -0.9135 -0.0000
vn 0.7431 0.6691 -0.0000
vn 0.0000 -0.0000 1.0000
vn -0.7431 -0.6691 -0.0000
vn 0.9511 0.3090 -0.0000
vn -0.9511 -0.3090 -0.0000
vn -0.0000 0.0000 -1.0000
vn 0.9945 -0.1045 -0.0000
vn -0.0000 -0.0000 1.0000
vn -0.9945 0.1045 -0.0000
vn 0.8660 -0.5000 -0.0000
vn -0.8660 0.5000 -0.0000
vn 0.5878 -0.8090 -0.0000
vn -0.5878 0.8090 -0.0000
vn 0.2079 -0.9781 -0.0000
vn -0.2079 0.9781 -0.0000
vn -0.2079 -0.9781 -0.0000
vn 0.2079 0.9781 -0.0000
vn -0.5878 -0.8090 -0.0000
vn 0.5878 0.8090 -0.0000
vn -0.8660 -0.5000 -0.0000
vn 0.8660 0.5000 -0.0000
vn -0.9945 -0.1045 -0.0000
vn 0.9945 0.1045 -0.0000
vn -0.9511 0.3090 -0.0000
vn 0.9511 -0.3090 -0.0000
vn -0.7431 0.6691 -0.0000
vn 0.7431 -0.6691 -0.0000
vn -0.4067 0.9135 -0.0000
vn 0.4067 -0.9135 -0.0000
# 73 vertex normals

vt 0.2461 0.6627 0.0000
vt 0.2461 0.7116 0.0000
vt 0.2202 0.7116 0.0000
vt 0.2202 0.6627 0.0000
vt 0.2245 0.4658 0.0000
vt 0.0569 0.4658 0.0000
vt 0.0496 0.4444 0.0000
vt 0.2318 0.4444 0.0000
vt 0.2464 0.4618 0.0000
vt 0.3852 0.4618 0.0000
vt 0.3912 0.4410 0.0000
vt 0.2404 0.4410 0.0000
vt 0.2245 0.4791 0.0000
vt 0.0569 0.4791 0.0000
vt 0.2464 0.4748 0.0000
vt 0.3852 0.4748 0.0000
vt 0.2245 0.5119 0.0000
vt 0.0569 0.5119 0.0000
vt 0.2464 0.5066 0.0000
vt 0.3852 0.5066 0.0000
vt 0.2245 0.5247 0.0000
vt 0.0569 0.5247 0.0000
vt 0.2464 0.5190 0.0000
vt 0.3852 0.5190 0.0000
vt 0.4498 0.8737 0.0000
vt 0.3504 0.8737 0.0000
vt 0.3409 0.8634 0.0000
vt 0.4593 0.8634 0.0000
vt 0.4498 0.9852 0.0000
vt 0.4593 0.9956 0.0000
vt 0.3504 0.9852 0.0000
vt 0.3409 0.9956 0.0000
vt 0.1872 0.6158 0.0000
vt 0.0942 0.6158 0.0000
vt 0.0704 0.5247 0.0000
vt 0.2111 0.5247 0.0000
vt 0.2771 0.6075 0.0000
vt 0.3545 0.6075 0.0000
vt 0.3743 0.5190 0.0000
vt 0.2573 0.5190 0.0000
vt 0.4278 0.8979 0.0000
vt 0.3725 0.8979 0.0000
vt 0.3561 0.8801 0.0000
vt 0.4442 0.8801 0.0000
vt 0.4278 0.9610 0.0000
vt 0.4442 0.9788 0.0000
vt 0.3725 0.9610 0.0000
vt 0.3561 0.9788 0.0000
vt 0.1613 0.8319 0.0000
vt 0.1202 0.8319 0.0000
vt 0.1115 0.6158 0.0000
vt 0.1699 0.6158 0.0000
vt 0.3081 0.8175 0.0000
vt 0.3235 0.8175 0.0000
vt 0.3405 0.6075 0.0000
vt 0.2911 0.6075 0.0000
vt 0.1832 0.8517 0.0000
vt 0.0982 0.8517 0.0000
vt 0.3081 0.8368 0.0000
vt 0.3235 0.8368 0.0000
vt 0.1832 0.8926 0.0000
vt 0.0982 0.8926 0.0000
vt 0.3081 0.8811 0.0000
vt 0.3235 0.8811 0.0000
vt 0.3235 0.8323 0.0000
vt 0.3081 0.8323 0.0000
vt 0.1604 0.9124 0.0000
vt 0.1211 0.9124 0.0000
vt 0.3081 0.8958 0.0000
vt 0.3235 0.8958 0.0000
vt 0.3235 0.8765 0.0000
vt 0.3081 0.8765 0.0000
vt 0.1604 0.9647 0.0000
vt 0.1211 0.9647 0.0000
vt 0.3081 0.9466 0.0000
vt 0.3235 0.9466 0.0000
vt 0.1604 0.9911 0.0000
vt 0.1211 0.9911 0.0000
vt 0.1107 0.9647 0.0000
vt 0.1707 0.9647 0.0000
vt 0.3081 0.9723 0.0000
vt 0.3235 0.9723 0.0000
vt 0.3314 0.9466 0.0000
vt 0.3003 0.9466 0.0000
vt 0.2071 0.6498 0.0000
vt 0.2071 0.7244 0.0000
vt 0.2592 0.6498 0.0000
vt 0.2592 0.7244 0.0000
vt 0.2461 0.6049 0.0000
vt 0.2202 0.6049 0.0000
vt 0.2202 0.6343 0.0000
vt 0.2461 0.6343 0.0000
vt 0.2069 0.8926 0.0000
vt 0.2069 0.8517 0.0000
vt 0.2202 0.7694 0.0000
vt 0.2461 0.7694 0.0000
vt 0.2461 0.7400 0.0000
vt 0.2202 0.7400 0.0000
vt 0.0746 0.8926 0.0000
vt 0.0746 0.8517 0.0000
vt 0.2461 0.5755 0.0000
vt 0.2202 0.5755 0.0000
vt 0.2305 0.8973 0.0000
vt 0.2305 0.8471 0.0000
vt 0.2202 0.7988 0.0000
vt 0.2461 0.7988 0.0000
vt 0.0509 0.8973 0.0000
vt 0.0509 0.8471 0.0000
vt 0.2461 0.5419 0.0000
vt 0.2202 0.5419 0.0000
vt 0.2575 0.8973 0.0000
vt 0.2575 0.8471 0.0000
vt 0.2202 0.8323 0.0000
vt 0.2461 0.8323 0.0000
vt 0.0240 0.8973 0.0000
vt 0.0240 0.8471 0.0000
vt 0.2234 0.6475 0.0000
vt 0.2442 0.6475 0.0000
vt 0.2442 0.6888 0.0000
vt 0.2234 0.6888 0.0000
vt 0.1666 0.9334 0.0000
vt 0.1726 0.9467 0.0000
vt 0.1394 0.9537 0.0000
vt 0.1394 0.9392 0.0000
vt 0.2442 0.6549 0.0000
vt 0.2234 0.6549 0.0000
vt 0.2234 0.6133 0.0000
vt 0.2442 0.6133 0.0000
vt 0.1892 0.9173 0.0000
vt 0.2001 0.9270 0.0000
vt 0.2442 0.6269 0.0000
vt 0.2234 0.6269 0.0000
vt 0.2234 0.5921 0.0000
vt 0.2442 0.5921 0.0000
vt 0.2031 0.8934 0.0000
vt 0.2171 0.8979 0.0000
vt 0.2442 0.6095 0.0000
vt 0.2234 0.6095 0.0000
vt 0.2234 0.5877 0.0000
vt 0.2442 0.5877 0.0000
vt 0.2060 0.8660 0.0000
vt 0.2207 0.8645 0.0000
vt 0.2442 0.6059 0.0000
vt 0.2234 0.6059 0.0000
vt 0.2234 0.6008 0.0000
vt 0.2442 0.6008 0.0000
vt 0.1974 0.8398 0.0000
vt 0.2102 0.8326 0.0000
vt 0.2442 0.6166 0.0000
vt 0.2234 0.6166 0.0000
vt 0.2234 0.6291 0.0000
vt 0.2442 0.6291 0.0000
vt 0.1788 0.8194 0.0000
vt 0.1874 0.8076 0.0000
vt 0.2442 0.6398 0.0000
vt 0.2234 0.6398 0.0000
vt 0.2234 0.6677 0.0000
vt 0.2442 0.6677 0.0000
vt 0.1533 0.8082 0.0000
vt 0.1564 0.7939 0.0000
vt 0.2442 0.6715 0.0000
vt 0.2234 0.6715 0.0000
vt 0.2234 0.7100 0.0000
vt 0.2442 0.7100 0.0000
vt 0.2234 0.7062 0.0000
vt 0.2442 0.7062 0.0000
vt 0.2234 0.7486 0.0000
vt 0.2442 0.7486 0.0000
vt 0.1000 0.8194 0.0000
vt 0.0913 0.8076 0.0000
vt 0.1224 0.7939 0.0000
vt 0.1254 0.8082 0.0000
vt 0.2442 0.7378 0.0000
vt 0.2234 0.7378 0.0000
vt 0.2234 0.7769 0.0000
vt 0.2442 0.7769 0.0000
vt 0.0813 0.8398 0.0000
vt 0.0686 0.8326 0.0000
vt 0.2442 0.7610 0.0000
vt 0.2234 0.7610 0.0000
vt 0.2234 0.7900 0.0000
vt 0.2442 0.7900 0.0000
vt 0.0727 0.8660 0.0000
vt 0.0580 0.8645 0.0000
vt 0.2442 0.7717 0.0000
vt 0.2234 0.7717 0.0000
vt 0.2234 0.7855 0.0000
vt 0.2442 0.7855 0.0000
vt 0.0756 0.8934 0.0000
vt 0.0616 0.8979 0.0000
vt 0.2442 0.7681 0.0000
vt 0.2234 0.7681 0.0000
vt 0.2234 0.7644 0.0000
vt 0.2442 0.7644 0.0000
vt 0.0895 0.9173 0.0000
vt 0.0786 0.9270 0.0000
vt 0.2442 0.7508 0.0000
vt 0.2234 0.7508 0.0000
vt 0.2234 0.7302 0.0000
vt 0.2442 0.7302 0.0000
vt 0.1121 0.9334 0.0000
vt 0.1061 0.9467 0.0000
vt 0.2442 0.7227 0.0000
vt 0.2234 0.7227 0.0000
# 204 texture coords

g grave_c
usemtl 15___Default
f 1/1/1 2/2/1 3/3/1 
f 3/3/1 4/4/1 1/1/1 
f 5/5/2 6/6/2 7/7/3 
f 7/7/3 8/8/3 5/5/2 
f 9/9/4 5/10/4 8/11/5 
f 8/11/5 10/12/5 9/9/4 
f 11/6/6 9/5/6 10/8/7 
f 10/8/7 12/7/7 11/6/6 
f 6/10/8 11/9/8 12/12/9 
f 12/12/9 7/11/9 6/10/8 
f 13/13/10 14/14/10 6/6/2 
f 6/6/2 5/5/2 13/13/10 
f 15/15/11 13/16/11 5/10/4 
f 5/10/4 9/9/4 15/15/11 
f 16/14/12 15/13/12 9/5/6 
f 9/5/6 11/6/6 16/14/12 
f 14/16/13 16/15/13 11/9/8 
f 11/9/8 6/10/8 14/16/13 
f 17/17/10 18/18/10 14/14/10 
f 14/14/10 13/13/10 17/17/10 
f 19/19/11 17/20/11 13/16/11 
f 13/16/11 15/15/11 19/19/11 
f 20/18/12 19/17/12 15/13/12 
f 15/13/12 16/14/12 20/18/12 
f 18/20/13 20/19/13 16/15/13 
f 16/15/13 14/16/13 18/20/13 
f 21/21/10 22/22/10 18/18/10 
f 18/18/10 17/17/10 21/21/10 
f 23/23/11 21/24/11 17/20/11 
f 17/20/11 19/19/11 23/23/11 
f 24/22/12 23/21/12 19/17/12 
f 19/17/12 20/18/12 24/22/12 
f 22/24/13 24/23/13 20/19/13 
f 20/19/13 18/20/13 22/24/13 
f 25/25/1 26/26/1 22/27/1 
f 22/27/1 21/28/1 25/25/1 
f 27/29/1 25/25/1 21/28/1 
f 21/28/1 23/30/1 27/29/1 
f 28/31/1 27/29/1 23/30/1 
f 23/30/1 24/32/1 28/31/1 
f 26/26/1 28/31/1 24/32/1 
f 24/32/1 22/27/1 26/26/1 
f 29/33/14 30/34/14 26/35/14 
f 26/35/14 25/36/14 29/33/14 
f 31/37/15 29/38/15 25/39/15 
f 25/39/15 27/40/15 31/37/15 
f 32/34/16 31/33/16 27/36/16 
f 27/36/16 28/35/16 32/34/16 
f 30/38/17 32/37/17 28/40/17 
f 28/40/17 26/39/17 30/38/17 
f 33/41/1 34/42/1 30/43/1 
f 30/43/1 29/44/1 33/41/1 
f 35/45/1 33/41/1 29/44/1 
f 29/44/1 31/46/1 35/45/1 
f 36/47/1 35/45/1 31/46/1 
f 31/46/1 32/48/1 36/47/1 
f 34/42/1 36/47/1 32/48/1 
f 32/48/1 30/43/1 34/42/1 
f 37/49/18 38/50/18 34/51/19 
f 34/51/19 33/52/19 37/49/18 
f 39/53/20 37/54/20 33/55/20 
f 33/55/20 35/56/20 39/53/20 
f 40/50/21 39/49/21 35/52/22 
f 35/52/22 36/51/22 40/50/21 
f 38/54/23 40/53/23 36/56/23 
f 36/56/23 34/55/23 38/54/23 
f 41/57/10 42/58/10 38/50/18 
f 38/50/18 37/49/18 41/57/10 
f 43/59/24 41/60/24 37/54/25 
f 37/54/25 39/53/25 43/59/24 
f 44/58/12 43/57/12 39/49/21 
f 39/49/21 40/50/21 44/58/12 
f 42/60/26 44/59/26 40/53/27 
f 40/53/27 38/54/27 42/60/26 
f 45/61/10 46/62/10 42/58/10 
f 42/58/10 41/57/10 45/61/10 
f 47/63/11 48/64/11 49/65/11 
f 49/65/11 50/66/11 47/63/11 
f 51/62/12 52/61/12 43/57/12 
f 43/57/12 44/58/12 51/62/12 
f 53/64/13 54/63/13 55/66/13 
f 55/66/13 56/65/13 53/64/13 
f 57/67/10 58/68/10 46/62/10 
f 46/62/10 45/61/10 57/67/10 
f 59/69/28 57/70/28 45/71/29 
f 45/71/29 52/72/29 59/69/28 
f 60/68/30 59/67/30 52/61/12 
f 52/61/12 51/62/12 60/68/30 
f 58/70/31 60/69/31 51/72/32 
f 51/72/32 46/71/32 58/70/31 
f 61/73/10 62/74/10 58/68/10 
f 58/68/10 57/67/10 61/73/10 
f 63/75/11 61/76/11 57/70/11 
f 57/70/11 59/69/11 63/75/11 
f 64/74/30 63/73/30 59/67/30 
f 59/67/30 60/68/30 64/74/30 
f 62/76/13 64/75/13 60/69/13 
f 60/69/13 58/70/13 62/76/13 
f 4/77/33 3/78/33 65/79/33 
f 65/79/33 66/80/33 4/77/33 
f 1/81/34 4/82/34 66/83/34 
f 66/83/34 67/84/34 1/81/34 
f 2/78/35 1/77/35 67/80/35 
f 67/80/35 68/79/35 2/78/35 
f 3/82/36 2/81/36 68/84/36 
f 68/84/36 65/83/36 3/82/36 
f 66/85/37 65/86/37 62/3/37 
f 62/3/37 61/4/37 66/85/37 
f 67/87/37 66/85/37 61/4/37 
f 61/4/37 63/1/37 67/87/37 
f 68/88/37 67/87/37 63/1/37 
f 63/1/37 64/2/37 68/88/37 
f 65/86/37 68/88/37 64/2/37 
f 64/2/37 62/3/37 65/86/37 
f 69/89/38 70/90/38 41/91/24 
f 41/91/24 43/92/24 69/89/38 
f 71/93/12 69/94/12 43/57/12 
f 43/57/12 52/61/12 71/93/12 
f 72/90/39 71/89/39 52/92/29 
f 52/92/29 45/91/29 72/90/39 
f 70/94/10 72/93/10 45/61/10 
f 45/61/10 41/57/10 70/94/10 
f 73/95/40 74/96/40 44/97/26 
f 44/97/26 42/98/26 73/95/40 
f 75/99/10 73/100/10 42/58/10 
f 42/58/10 46/62/10 75/99/10 
f 76/96/41 75/95/41 46/98/32 
f 46/98/32 51/97/32 76/96/41 
f 74/100/12 76/99/12 51/62/12 
f 51/62/12 44/58/12 74/100/12 
f 77/101/38 78/102/38 70/90/38 
f 70/90/38 69/89/38 77/101/38 
f 79/103/12 77/104/12 69/94/12 
f 69/94/12 71/93/12 79/103/12 
f 80/102/39 79/101/39 71/89/39 
f 71/89/39 72/90/39 80/102/39 
f 78/104/10 80/103/10 72/93/10 
f 72/93/10 70/94/10 78/104/10 
f 81/105/40 82/106/40 74/96/40 
f 74/96/40 73/95/40 81/105/40 
f 83/107/10 81/108/10 73/100/10 
f 73/100/10 75/99/10 83/107/10 
f 84/106/41 83/105/41 75/95/41 
f 75/95/41 76/96/41 84/106/41 
f 82/108/12 84/107/12 76/99/12 
f 76/99/12 74/100/12 82/108/12 
f 50/109/37 49/110/37 78/102/38 
f 78/102/38 77/101/38 50/109/37 
f 47/111/12 50/112/12 77/104/12 
f 77/104/12 79/103/12 47/111/12 
f 48/110/1 47/109/1 79/101/39 
f 79/101/39 80/102/39 48/110/1 
f 49/112/10 48/111/10 80/103/10 
f 80/103/10 78/104/10 49/112/10 
f 56/113/37 55/114/37 82/106/40 
f 82/106/40 81/105/40 56/113/37 
f 53/115/10 56/116/10 81/108/10 
f 81/108/10 83/107/10 53/115/10 
f 54/114/1 53/113/1 83/105/41 
f 83/105/41 84/106/41 54/114/1 
f 55/116/12 54/115/12 84/107/12 
f 84/107/12 82/108/12 55/116/12 
f 85/117/42 86/118/42 87/119/43 
f 87/119/43 88/120/43 85/117/42 
f 89/121/10 85/122/10 88/123/10 
f 88/123/10 90/124/10 89/121/10 
f 91/125/44 89/126/44 90/120/37 
f 90/120/37 92/119/37 91/125/44 
f 86/122/12 91/121/12 92/124/12 
f 92/124/12 87/123/12 86/122/12 
f 93/127/45 94/128/45 86/118/42 
f 86/118/42 85/117/42 93/127/45 
f 95/129/46 93/130/46 85/122/10 
f 85/122/10 89/121/10 95/129/46 
f 96/131/47 95/132/47 89/126/44 
f 89/126/44 91/125/44 96/131/47 
f 94/130/12 96/129/12 91/121/12 
f 91/121/12 86/122/12 94/130/12 
f 97/133/48 98/134/48 94/128/45 
f 94/128/45 93/127/45 97/133/48 
f 99/135/46 97/136/46 93/130/46 
f 93/130/46 95/129/46 99/135/46 
f 100/137/49 99/138/49 95/132/47 
f 95/132/47 96/131/47 100/137/49 
f 98/136/50 100/135/50 96/129/12 
f 96/129/12 94/130/12 98/136/50 
f 101/139/51 102/140/51 98/134/48 
f 98/134/48 97/133/48 101/139/51 
f 103/141/52 101/142/52 97/136/46 
f 97/136/46 99/135/46 103/141/52 
f 104/143/53 103/144/53 99/138/49 
f 99/138/49 100/137/49 104/143/53 
f 102/142/50 104/141/12 100/135/50 
f 100/135/50 98/136/50 102/142/50 
f 105/145/54 106/146/54 102/140/51 
f 102/140/51 101/139/51 105/145/54 
f 107/147/52 105/148/46 101/142/52 
f 101/142/52 103/141/52 107/147/52 
f 108/149/55 107/150/55 103/144/53 
f 103/144/53 104/143/53 108/149/55 
f 106/148/12 108/147/50 104/141/12 
f 104/141/12 102/142/50 106/148/12 
f 109/151/56 110/152/56 106/146/54 
f 106/146/54 105/145/54 109/151/56 
f 111/153/46 109/154/46 105/148/46 
f 105/148/46 107/147/52 111/153/46 
f 112/155/57 111/156/57 107/150/55 
f 107/150/55 108/149/55 112/155/57 
f 110/154/50 112/153/50 108/147/50 
f 108/147/50 106/148/12 110/154/50 
f 113/157/58 114/158/58 110/152/56 
f 110/152/56 109/151/56 113/157/58 
f 115/159/52 113/160/10 109/154/46 
f 109/154/46 111/153/46 115/159/52 
f 116/161/59 115/162/59 111/156/57 
f 111/156/57 112/155/57 116/161/59 
f 114/160/12 116/159/12 112/153/50 
f 112/153/50 110/154/50 114/160/12 
f 117/163/60 118/164/60 114/158/58 
f 114/158/58 113/157/58 117/163/60 
f 119/165/46 117/163/46 113/157/10 
f 113/157/10 115/162/52 119/165/46 
f 120/166/61 119/165/61 115/162/59 
f 115/162/59 116/161/59 120/166/61 
f 118/164/12 120/166/50 116/161/12 
f 116/161/12 114/158/12 118/164/12 
f 121/167/62 122/168/62 118/164/60 
f 118/164/60 117/163/60 121/167/62 
f 123/169/52 121/170/52 117/171/46 
f 117/171/46 119/172/46 123/169/52 
f 124/173/63 123/174/63 119/165/61 
f 119/165/61 120/166/61 124/173/63 
f 122/170/12 124/169/12 120/172/50 
f 120/172/50 118/171/12 122/170/12 
f 125/175/64 126/176/64 122/168/62 
f 122/168/62 121/167/62 125/175/64 
f 127/177/46 125/178/46 121/170/52 
f 121/170/52 123/169/52 127/177/46 
f 128/179/65 127/180/65 123/174/63 
f 123/174/63 124/173/63 128/179/65 
f 126/178/12 128/177/12 124/169/12 
f 124/169/12 122/170/12 126/178/12 
f 129/181/66 130/182/66 126/176/64 
f 126/176/64 125/175/64 129/181/66 
f 131/183/46 129/184/46 125/178/46 
f 125/178/46 127/177/46 131/183/46 
f 132/185/67 131/186/67 127/180/65 
f 127/180/65 128/179/65 132/185/67 
f 130/184/50 132/183/12 128/177/12 
f 128/177/12 126/178/12 130/184/50 
f 133/187/68 134/188/68 130/182/66 
f 130/182/66 129/181/66 133/187/68 
f 135/189/52 133/190/52 129/184/46 
f 129/184/46 131/183/46 135/189/52 
f 136/191/69 135/192/69 131/186/67 
f 131/186/67 132/185/67 136/191/69 
f 134/188/12 136/191/12 132/185/12 
f 132/185/12 130/182/50 134/188/12 
f 137/193/70 138/194/70 134/188/68 
f 134/188/68 133/187/68 137/193/70 
f 139/195/52 137/196/52 133/190/52 
f 133/190/52 135/189/52 139/195/52 
f 140/197/71 139/198/71 135/192/69 
f 135/192/69 136/191/69 140/197/71 
f 138/196/12 140/195/12 136/189/12 
f 136/189/12 134/190/12 138/196/12 
f 141/199/72 142/200/72 138/194/70 
f 138/194/70 137/193/70 141/199/72 
f 143/201/10 141/202/10 137/196/52 
f 137/196/52 139/195/52 143/201/10 
f 144/203/73 143/204/73 139/198/71 
f 139/198/71 140/197/71 144/203/73 
f 142/202/12 144/201/12 140/195/12 
f 140/195/12 138/196/12 142/202/12 
f 88/120/43 87/119/43 142/200/72 
f 142/200/72 141/199/72 88/120/43 
f 90/124/10 88/123/10 141/202/10 
f 141/202/10 143/201/10 90/124/10 
f 92/119/37 90/120/37 143/204/73 
f 143/204/73 144/203/73 92/119/37 
f 87/123/12 92/124/12 144/201/12 
f 144/201/12 142/202/12 87/123/12 
# 282 faces

