# 3ds Max Wavefront OBJ Exporter v0.97b - (c)2007 guruware
# File Created: 30.04.2013 09:47:48

mtllib grave02.mtl

#
# object grave_a
#

v  -42.5223 241.1545 13.4999
v  42.5075 241.1545 13.4999
v  42.5075 241.1545 -12.8382
v  -42.5223 241.1545 -12.8382
v  -94.8110 22.4531 35.4851
v  -94.8110 -0.0784 35.4851
v  94.8110 -0.0784 35.4851
v  94.8110 22.4531 35.4851
v  94.8110 -0.0784 -35.4851
v  94.8110 22.4531 -35.4851
v  -94.8110 -0.0784 -35.4851
v  -94.8110 22.4531 -35.4851
v  -79.8806 44.9845 25.5564
v  79.8658 44.9845 25.5564
v  65.8619 51.7326 13.4999
v  -65.8767 51.7326 13.4999
v  79.8658 44.9845 -25.5564
v  65.8619 51.7326 -12.8382
v  -79.8806 44.9845 -25.5564
v  -65.8767 51.7326 -12.8382
v  61.9238 226.8889 13.4999
v  52.0150 237.0972 13.4999
v  -52.0298 237.0972 13.4999
v  -61.9385 226.8889 13.4999
v  -65.8767 217.0939 13.4999
v  65.8619 217.0939 13.4999
v  65.8619 217.0939 -12.8382
v  -61.9385 226.8889 -12.8382
v  -52.0298 237.0972 -12.8382
v  52.0150 237.0972 -12.8382
v  61.9238 226.8889 -12.8382
v  -65.8767 217.0939 -12.8382
v  36.7073 240.9132 -12.9042
v  34.5694 254.1685 -12.9042
v  34.5694 254.1685 13.4126
v  36.7073 240.9132 13.4126
v  28.4133 265.8251 -12.9042
v  28.4133 265.8251 13.4126
v  18.9817 274.4769 -12.9042
v  18.9817 274.4769 13.4126
v  7.4121 279.0804 -12.9042
v  7.4121 279.0804 13.4126
v  -4.9000 279.0804 -12.9042
v  -4.9000 279.0804 13.4126
v  -16.4696 274.4769 -12.9042
v  -16.4696 274.4769 13.4126
v  -25.9013 265.8251 -12.9042
v  -25.9013 265.8251 13.4126
v  -32.0573 254.1685 -12.9042
v  -32.0573 254.1685 13.4126
v  -34.1953 240.9132 -12.9042
v  -34.1953 240.9132 13.4126
v  1.2560 240.9132 -12.9042
v  1.2560 240.9132 13.4126
v  -79.8806 22.4531 25.5564
v  79.8658 22.4531 25.5564
v  79.8658 22.4531 -25.5564
v  -79.8806 22.4531 -25.5564
# 58 vertices

vn -0.2003 0.9797 -0.0000
vn 0.2003 0.9797 -0.0000
vn 0.0000 0.0000 1.0000
vn 1.0000 0.0000 -0.0000
vn 0.0000 0.0000 -1.0000
vn -1.0000 0.0000 -0.0000
vn -0.2476 0.9392 0.2381
vn 0.2476 0.9392 0.2381
vn 0.2230 0.9379 0.2659
vn -0.2230 0.9379 0.2659
vn 0.2407 0.9418 -0.2347
vn 0.2248 0.9413 -0.2519
vn -0.2407 0.9418 -0.2347
vn -0.2248 0.9413 -0.2519
vn 0.9818 0.1900 -0.0000
vn -0.9818 0.1900 -0.0000
vn 0.5661 0.8243 -0.0000
vn 0.8384 0.5450 -0.0000
vn -0.5661 0.8243 -0.0000
vn -0.8384 0.5450 -0.0000
vn 0.9872 0.1592 -0.0000
vn 0.9483 0.3173 -0.0000
vn 0.7917 0.6109 -0.0000
vn 0.5316 0.8470 -0.0000
vn 0.1882 0.9821 -0.0000
vn -0.1882 0.9821 -0.0000
vn -0.5316 0.8470 -0.0000
vn -0.7917 0.6109 -0.0000
vn -0.9483 0.3173 -0.0000
vn -0.9872 0.1592 -0.0000
vn -0.0000 0.0000 -1.0000
vn 0.0000 -0.0000 1.0000
vn -0.0000 -0.0000 1.0000
vn -0.0000 0.0000 1.0000
vn 0.0000 1.0000 -0.0000
# 35 vertex normals

vt 0.1256 0.4137 0.0000
vt 0.1275 0.2014 0.0000
vt 0.1933 0.2020 0.0000
vt 0.1914 0.4142 0.0000
vt 0.4941 0.0386 0.0000
vt 0.4941 0.0048 0.0000
vt 0.8448 0.0048 0.0000
vt 0.8448 0.0386 0.0000
vt 0.9962 0.0894 0.0000
vt 0.9962 0.0462 0.0000
vt 0.8259 0.0462 0.0000
vt 0.8259 0.0894 0.0000
vt 0.3996 0.8267 0.0000
vt 0.3938 0.6111 0.0000
vt 0.4174 0.6298 0.0000
vt 0.4222 0.8076 0.0000
vt 0.4919 0.6100 0.0000
vt 0.4680 0.6292 0.0000
vt 0.4977 0.8256 0.0000
vt 0.4728 0.8070 0.0000
vt 0.7840 0.3454 0.0000
vt 0.7657 0.3607 0.0000
vt 0.7481 0.3668 0.0000
vt 0.5908 0.3668 0.0000
vt 0.5732 0.3607 0.0000
vt 0.5549 0.3454 0.0000
vt 0.5476 0.3307 0.0000
vt 0.5476 0.0825 0.0000
vt 0.7913 0.0825 0.0000
vt 0.7913 0.3307 0.0000
vt 0.9435 0.1342 0.0000
vt 0.8803 0.1342 0.0000
vt 0.8803 0.3870 0.0000
vt 0.9435 0.3870 0.0000
vt 0.9435 0.4291 0.0000
vt 0.9435 0.4087 0.0000
vt 0.8803 0.4087 0.0000
vt 0.8803 0.4291 0.0000
vt 0.9435 0.4508 0.0000
vt 0.8803 0.4508 0.0000
vt 0.5362 0.0972 0.0000
vt 0.5365 0.1289 0.0000
vt 0.4676 0.1295 0.0000
vt 0.4673 0.0978 0.0000
vt 0.5368 0.1578 0.0000
vt 0.4678 0.1584 0.0000
vt 0.5371 0.1944 0.0000
vt 0.4681 0.1950 0.0000
vt 0.5375 0.2393 0.0000
vt 0.4685 0.2399 0.0000
vt 0.5379 0.2870 0.0000
vt 0.4689 0.2876 0.0000
vt 0.5383 0.3319 0.0000
vt 0.4693 0.3325 0.0000
vt 0.5386 0.3685 0.0000
vt 0.4697 0.3691 0.0000
vt 0.5389 0.4021 0.0000
vt 0.4700 0.4027 0.0000
vt 0.5392 0.4338 0.0000
vt 0.4702 0.4344 0.0000
vt 0.6102 0.3863 0.0000
vt 0.6216 0.4038 0.0000
vt 0.6390 0.4168 0.0000
vt 0.6604 0.4237 0.0000
vt 0.6832 0.4237 0.0000
vt 0.7046 0.4168 0.0000
vt 0.7220 0.4038 0.0000
vt 0.7334 0.3863 0.0000
vt 0.7374 0.3665 0.0000
vt 0.6718 0.3665 0.0000
vt 0.6062 0.3665 0.0000
vt 0.5217 0.0386 0.0000
vt 0.8172 0.0386 0.0000
vt 0.8172 0.0724 0.0000
vt 0.5217 0.0724 0.0000
vt 0.9724 0.0894 0.0000
vt 0.8498 0.0894 0.0000
vt 0.8498 0.1299 0.0000
vt 0.9724 0.1299 0.0000
vt 0.3811 0.8471 0.0000
vt 0.3742 0.5912 0.0000
vt 0.5173 0.8456 0.0000
vt 0.5103 0.5896 0.0000
# 83 texture coords

g grave_a
usemtl 15___Default
f 1/1/1 2/2/2 3/3/2 
f 3/3/2 4/4/1 1/1/1 
f 5/5/3 6/6/3 7/7/3 
f 7/7/3 8/8/3 5/5/3 
f 8/9/4 7/10/4 9/11/4 
f 9/11/4 10/12/4 8/9/4 
f 10/8/5 9/7/5 11/6/5 
f 11/6/5 12/5/5 10/8/5 
f 12/12/6 11/11/6 6/10/6 
f 6/10/6 5/9/6 12/12/6 
f 13/13/7 14/14/8 15/15/9 
f 15/15/9 16/16/10 13/13/7 
f 14/14/8 17/17/11 18/18/12 
f 18/18/12 15/15/9 14/14/8 
f 17/17/11 19/19/13 20/20/14 
f 20/20/14 18/18/12 17/17/11 
f 19/19/13 13/13/7 16/16/10 
f 16/16/10 20/20/14 19/19/13 
f 21/21/3 22/22/3 2/23/3 
f 2/23/3 1/24/3 23/25/3 
f 23/25/3 24/26/3 25/27/3 
f 2/23/3 23/25/3 25/27/3 
f 2/23/3 25/27/3 16/28/3 
f 2/23/3 16/28/3 15/29/3 
f 21/21/3 2/23/3 15/29/3 
f 21/21/3 15/29/3 26/30/3 
f 15/31/4 18/32/4 27/33/15 
f 27/33/15 26/34/15 15/31/4 
f 28/26/5 29/25/5 4/24/5 
f 4/24/5 3/23/5 30/22/5 
f 30/22/5 31/21/5 27/30/5 
f 4/24/5 30/22/5 27/30/5 
f 4/24/5 27/30/5 18/29/5 
f 4/24/5 18/29/5 20/28/5 
f 28/26/5 4/24/5 20/28/5 
f 28/26/5 20/28/5 32/27/5 
f 20/32/6 16/31/6 25/34/16 
f 25/34/16 32/33/16 20/32/6 
f 22/35/17 21/36/18 31/37/18 
f 31/37/18 30/38/17 22/35/17 
f 29/38/19 28/37/20 24/36/20 
f 24/36/20 23/35/19 29/38/19 
f 2/39/2 22/35/17 30/38/17 
f 30/38/17 3/40/2 2/39/2 
f 4/40/1 29/38/19 23/35/19 
f 23/35/19 1/39/1 4/40/1 
f 21/36/18 26/34/15 27/33/15 
f 27/33/15 31/37/18 21/36/18 
f 28/37/20 32/33/16 25/34/16 
f 25/34/16 24/36/20 28/37/20 
f 33/41/21 34/42/22 35/43/22 
f 35/43/22 36/44/21 33/41/21 
f 34/42/22 37/45/23 38/46/23 
f 38/46/23 35/43/22 34/42/22 
f 37/45/23 39/47/24 40/48/24 
f 40/48/24 38/46/23 37/45/23 
f 39/47/24 41/49/25 42/50/25 
f 42/50/25 40/48/24 39/47/24 
f 41/49/25 43/51/26 44/52/26 
f 44/52/26 42/50/25 41/49/25 
f 43/51/26 45/53/27 46/54/27 
f 46/54/27 44/52/26 43/51/26 
f 45/53/27 47/55/28 48/56/28 
f 48/56/28 46/54/27 45/53/27 
f 47/55/28 49/57/29 50/58/29 
f 50/58/29 48/56/28 47/55/28 
f 49/57/29 51/59/30 52/60/30 
f 52/60/30 50/58/29 49/57/29 
f 49/61/31 47/62/31 45/63/31 
f 45/63/31 43/64/5 41/65/5 
f 41/65/5 39/66/5 37/67/31 
f 45/63/31 41/65/5 37/67/31 
f 34/68/31 33/69/5 53/70/5 
f 37/67/31 34/68/31 53/70/5 
f 45/63/31 37/67/31 53/70/5 
f 49/61/31 45/63/31 53/70/5 
f 49/61/31 53/70/5 51/71/5 
f 40/66/3 42/65/32 44/64/33 
f 44/64/33 46/63/34 48/62/34 
f 48/62/34 50/61/3 52/71/33 
f 44/64/33 48/62/34 52/71/33 
f 54/70/3 36/69/3 35/68/32 
f 52/71/33 54/70/3 35/68/32 
f 44/64/33 52/71/33 35/68/32 
f 40/66/3 44/64/33 35/68/32 
f 40/66/3 35/68/32 38/67/3 
f 55/72/3 56/73/3 14/74/3 
f 14/74/3 13/75/3 55/72/3 
f 56/76/4 57/77/4 17/78/4 
f 17/78/4 14/79/4 56/76/4 
f 57/73/5 58/72/5 19/75/5 
f 19/75/5 17/74/5 57/73/5 
f 58/77/6 55/76/6 13/79/6 
f 13/79/6 19/78/6 58/77/6 
f 5/80/35 8/81/35 56/14/35 
f 56/14/35 55/13/35 5/80/35 
f 12/82/35 5/80/35 55/13/35 
f 55/13/35 58/19/35 12/82/35 
f 10/83/35 12/82/35 58/19/35 
f 58/19/35 57/17/35 10/83/35 
f 8/81/35 10/83/35 57/17/35 
f 57/17/35 56/14/35 8/81/35 
# 102 faces

